<svg width="52" height="52" viewBox="0 0 52 52" fill="none" xmlns="http://www.w3.org/2000/svg">
<path d="M16.443 23.5322C16.443 23.6744 16.4379 23.8165 16.4277 23.9587C16.4227 24.0298 16.4125 24.0958 16.4074 24.1669C16.4024 24.1974 16.3871 24.3142 16.4074 24.172C16.3668 24.4412 16.3059 24.7103 16.2297 24.9744C16.1891 25.1064 16.1484 25.2333 16.0977 25.3603C16.0824 25.4009 16.0672 25.4415 16.0469 25.4872C16.1129 25.3298 16.0266 25.533 16.0164 25.5533C15.9047 25.797 15.7727 26.0306 15.6305 26.254C15.5695 26.3455 15.5035 26.4369 15.4426 26.5283C15.3156 26.706 15.5391 26.4165 15.402 26.5841C15.3613 26.6349 15.3156 26.6857 15.275 26.7365C15.1074 26.9294 14.9297 27.1072 14.7367 27.2747C14.6961 27.3103 14.6555 27.3458 14.6098 27.3814C14.5945 27.3915 14.4219 27.5287 14.5539 27.4271C14.4676 27.4931 14.3762 27.5591 14.2848 27.6201C14.0613 27.7673 13.8328 27.8994 13.5891 28.0162C13.5281 28.0466 13.4672 28.072 13.4063 28.1025C13.5637 28.0314 13.3555 28.1228 13.3402 28.1279C13.2336 28.1685 13.127 28.204 13.0203 28.2396C12.7563 28.3208 12.4922 28.3767 12.2231 28.4275C11.9996 28.4681 12.3754 28.4173 12.152 28.4376L12.0149 28.4529C11.8727 28.463 11.7305 28.4732 11.5934 28.4732C11.4563 28.4732 11.3191 28.4732 11.182 28.463C10.9535 28.4478 10.8875 28.4427 10.7199 28.4122C10.1055 28.3005 9.63829 28.138 9.14571 27.8638C8.60235 27.5591 8.26212 27.29 7.84063 26.8228C7.62227 26.579 7.58165 26.5333 7.40899 26.2591C7.24141 26.0052 7.09415 25.7361 6.97735 25.4568C7.02813 25.5685 6.96212 25.4162 6.95196 25.3908C6.92657 25.3298 6.90626 25.2689 6.88594 25.208C6.83516 25.0607 6.78946 24.9134 6.75391 24.7611C6.66758 24.4259 6.64219 24.2685 6.62188 23.9892C6.5711 23.3443 6.6168 22.8771 6.75391 22.3287C6.79454 22.1763 6.83516 22.029 6.88594 21.8818C6.90118 21.831 6.92149 21.7853 6.93673 21.7345C6.93673 21.7345 7.03321 21.5009 6.97735 21.633C7.09922 21.3537 7.24649 21.0845 7.40899 20.8306C7.95235 19.9927 8.88672 19.2412 9.84649 18.906C10.4813 18.6826 10.9535 18.6064 11.5984 18.6165C11.7305 18.6165 11.8574 18.6267 11.9844 18.6369C12.0402 18.6419 12.1012 18.647 12.157 18.6521C12.3856 18.6724 12.0047 18.6216 12.2281 18.6622C12.4973 18.713 12.7664 18.7689 13.0254 18.8501C13.1523 18.8908 13.2793 18.9365 13.4063 18.9872C13.6145 19.0634 13.2742 18.9212 13.4723 19.0126C13.5434 19.0482 13.6145 19.0787 13.6856 19.1142C13.9344 19.2412 14.1731 19.3833 14.4016 19.5408C14.4574 19.5814 14.5082 19.6169 14.5641 19.6576C14.432 19.556 14.6453 19.7287 14.6707 19.7439C14.7723 19.8302 14.8688 19.9165 14.9652 20.013C15.0617 20.1044 15.1531 20.2009 15.2395 20.3025C15.2852 20.3533 15.3258 20.404 15.3715 20.4548C15.402 20.4904 15.4273 20.5208 15.4527 20.5564C15.402 20.4904 15.402 20.4904 15.4527 20.5615C15.6051 20.7798 15.7524 20.9982 15.8793 21.2369C15.9555 21.374 16.0215 21.5162 16.0824 21.6583C16.0266 21.5263 16.0723 21.638 16.0824 21.6634C16.1129 21.7497 16.1484 21.831 16.1738 21.9173C16.2703 22.1966 16.3414 22.4861 16.3922 22.7755C16.3922 22.7705 16.4277 22.9939 16.4074 22.8822C16.3973 22.7958 16.4227 23.0345 16.4227 23.0599C16.4379 23.2021 16.443 23.3646 16.443 23.5322C16.443 23.9283 16.7934 24.3142 17.2047 24.2939C17.616 24.2736 17.9715 23.9587 17.9664 23.5322C17.9512 21.0794 16.5191 18.7283 14.2695 17.6974C11.7254 16.5294 8.61758 17.0931 6.72852 19.2056C4.82422 21.3384 4.50938 24.5884 6.0836 27.0107C7.62735 29.3923 10.6285 30.54 13.3606 29.7173C15.6914 29.0165 17.5348 26.9701 17.8801 24.5427C17.9309 24.2076 17.9613 23.8724 17.9664 23.5322C17.9664 23.1361 17.616 22.7501 17.2047 22.7705C16.7883 22.7857 16.4481 23.1005 16.443 23.5322Z" fill="#010101"/>
<path d="M46.1754 47.907H18.8754C18.5098 47.907 18.134 47.8867 17.7684 47.907H17.7227C17.9664 48.0949 18.2102 48.2777 18.459 48.4656C18.2508 47.8207 18.0477 47.1707 17.8395 46.5257C17.3469 44.982 16.8543 43.4332 16.3617 41.8894C15.7676 40.0207 15.1684 38.1519 14.5742 36.2832C14.0563 34.6632 13.5383 33.0382 13.0203 31.4183C12.7715 30.6363 12.5633 29.8289 12.2688 29.0672C12.2637 29.057 12.2637 29.0468 12.2586 29.0316C12.0148 29.3515 11.7711 29.6765 11.5223 29.9965H38.8223C39.1879 29.9965 39.5637 30.0168 39.9293 29.9965H39.975C39.7313 29.8086 39.4875 29.6257 39.2387 29.4379C39.4469 30.0828 39.65 30.7328 39.8582 31.3777C40.3508 32.9215 40.8434 34.4703 41.3359 36.014C41.9301 37.8828 42.5293 39.7515 43.1234 41.6203C43.6414 43.2402 44.1594 44.8652 44.6773 46.4851C44.9262 47.2672 45.1598 48.0593 45.4289 48.8363C45.434 48.8465 45.434 48.8566 45.4391 48.8718C45.566 49.2629 45.9672 49.5168 46.3785 49.405C46.7645 49.2984 47.0336 48.8617 46.9117 48.4656C46.7035 47.8207 46.5004 47.1707 46.2922 46.5257C45.7996 44.982 45.307 43.4332 44.8145 41.8894C44.2203 40.0207 43.6211 38.1519 43.027 36.2832C42.509 34.6632 41.991 33.0382 41.4731 31.4183C41.2242 30.6363 40.9957 29.839 40.7215 29.0672C40.7164 29.057 40.7164 29.0468 40.7113 29.0316C40.6098 28.7117 40.3203 28.473 39.975 28.473H15.0109C13.8633 28.473 12.7156 28.4425 11.568 28.473H11.5223C11.0449 28.473 10.6336 28.9605 10.7859 29.4379C10.9941 30.0828 11.1973 30.7328 11.4055 31.3777C11.8981 32.9215 12.3906 34.4703 12.8832 36.014C13.4773 37.8828 14.0766 39.7515 14.6707 41.6203C15.1887 43.2402 15.7066 44.8652 16.2246 46.4851C16.4734 47.2672 16.702 48.0644 16.9762 48.8363C16.9813 48.8465 16.9813 48.8566 16.9863 48.8718C17.0879 49.1918 17.3773 49.4304 17.7227 49.4304H42.6867C43.8344 49.4304 44.982 49.4609 46.1297 49.4304H46.1754C46.5715 49.4304 46.9574 49.08 46.9371 48.6687C46.9168 48.2574 46.602 47.907 46.1754 47.907Z" fill="#010101"/>
<path d="M37.4258 48.4656C37.2176 47.8207 37.0145 47.1707 36.8063 46.5257C36.3137 44.982 35.8211 43.4332 35.3285 41.8894C34.7344 40.0207 34.1352 38.1519 33.541 36.2832C33.0231 34.6632 32.5051 33.0382 31.9871 31.4183C31.7383 30.6363 31.5047 29.8441 31.2356 29.0672C31.2305 29.057 31.2305 29.0468 31.2254 29.0316C31.0984 28.6406 30.6973 28.3867 30.2859 28.4984C29.9 28.605 29.6309 29.0418 29.7527 29.4379C29.9609 30.0828 30.1641 30.7328 30.3723 31.3777C30.8648 32.9215 31.3574 34.4703 31.85 36.014C32.4441 37.8828 33.0434 39.7515 33.6375 41.6203C34.1555 43.2402 34.6734 44.8652 35.1914 46.4851C35.4402 47.2672 35.6738 48.0593 35.943 48.8363C35.9481 48.8465 35.9481 48.8566 35.9531 48.8718C36.0801 49.2629 36.4813 49.5168 36.8926 49.405C37.2785 49.2984 37.5477 48.8617 37.4258 48.4656ZM27.9348 48.4656C27.7266 47.8207 27.5234 47.1707 27.3152 46.5257C26.8227 44.982 26.3301 43.4332 25.8375 41.8894C25.2434 40.0207 24.6441 38.1519 24.05 36.2832C23.532 34.6632 23.0141 33.0382 22.4961 31.4183C22.2473 30.6363 22.0137 29.8441 21.7445 29.0672C21.7395 29.057 21.7395 29.0468 21.7344 29.0316C21.6074 28.6406 21.2063 28.3867 20.7949 28.4984C20.409 28.605 20.1399 29.0418 20.2617 29.4379C20.4699 30.0828 20.6731 30.7328 20.8813 31.3777C21.3738 32.9215 21.8664 34.4703 22.359 36.014C22.9531 37.8828 23.5524 39.7515 24.1465 41.6203C24.6645 43.2402 25.1824 44.8652 25.7004 46.4851C25.9492 47.2672 26.1828 48.0593 26.452 48.8363C26.457 48.8465 26.457 48.8566 26.4621 48.8718C26.5891 49.2629 26.9902 49.5168 27.4016 49.405C27.7926 49.2984 28.0617 48.8617 27.9348 48.4656Z" fill="#010101"/>
<path d="M44.9008 23.527C44.9008 23.6793 44.8957 23.8317 44.8805 23.984C44.8754 24.0602 44.8652 24.1364 44.8602 24.2074C44.8805 24.05 44.8449 24.2938 44.8449 24.3039C44.7942 24.5934 44.7231 24.8828 44.6266 25.1621C44.6113 25.2078 44.5961 25.2535 44.5758 25.2992C44.5707 25.3094 44.4844 25.5328 44.5453 25.3856C44.4895 25.5176 44.4235 25.6496 44.3574 25.7766C44.2254 26.0305 44.068 26.2742 43.9004 26.5078C43.7633 26.6957 43.9918 26.4012 43.8445 26.5789C43.8141 26.6145 43.7836 26.65 43.7531 26.6906C43.6617 26.7973 43.5602 26.9039 43.4586 27.0055C43.357 27.1071 43.2504 27.2035 43.1438 27.3C43.1082 27.3305 43.0727 27.361 43.032 27.3914C42.9609 27.4473 42.9559 27.4524 43.0168 27.4067C42.9762 27.4371 42.9406 27.4625 42.9 27.493C42.6867 27.6453 42.4582 27.7875 42.2246 27.9094C41.9402 28.0617 41.7524 28.1379 41.4223 28.2344C40.7266 28.4477 40.0715 28.4528 39.325 28.4528H12.9797C12.5125 28.4528 12.0352 28.4324 11.568 28.4528H11.507V29.9762C14.2188 29.961 16.6207 28.2496 17.5703 25.7207C18.4996 23.2477 17.7074 20.2922 15.6762 18.6012C14.4981 17.6211 13.0406 17.0778 11.507 17.0676V18.591H39.9598C41.0668 18.5961 42.0266 18.9313 42.9508 19.5965C43.1387 19.7336 42.8492 19.5051 43.0219 19.6524C43.0574 19.6828 43.093 19.7133 43.1336 19.7438C43.2402 19.8352 43.3469 19.9367 43.4484 20.0383C43.5399 20.1297 43.6313 20.2262 43.7176 20.3278C43.7582 20.3735 43.7938 20.4192 43.8344 20.4649C43.8902 20.536 43.8953 20.541 43.8496 20.4801C43.8801 20.5207 43.9055 20.5563 43.936 20.5969C44.0883 20.8102 44.2305 21.0387 44.3524 21.2723C44.4184 21.3992 44.4844 21.5313 44.5402 21.6633C44.4895 21.5414 44.5453 21.6887 44.5606 21.7192C44.591 21.8004 44.6215 21.8817 44.6469 21.9629C44.85 22.5774 44.9008 22.9278 44.9008 23.527C44.9059 23.9231 45.2512 24.309 45.6625 24.2887C46.0738 24.2684 46.4293 23.9535 46.4242 23.527C46.409 21.0285 44.9262 18.6621 42.6207 17.6465C41.6102 17.1996 40.559 17.0727 39.4723 17.0727H15.9859C14.5184 17.0727 13.0406 17.0371 11.5731 17.0727H11.5121C11.116 17.0727 10.7301 17.4231 10.7504 17.8344C10.7707 18.2508 11.0856 18.591 11.5121 18.5961C11.6543 18.5961 11.7965 18.6012 11.9387 18.6114C12.0098 18.6164 12.0758 18.6266 12.1469 18.6317C12.3754 18.652 11.9945 18.6012 12.218 18.6418C12.5125 18.6977 12.7969 18.7586 13.0813 18.85C13.2082 18.8907 13.3352 18.9364 13.4621 18.9922C13.3047 18.9262 13.5078 19.0125 13.5281 19.0227C13.5891 19.0532 13.65 19.0785 13.7109 19.109C13.9598 19.236 14.1984 19.3782 14.4219 19.5407C14.4676 19.5711 14.5133 19.6067 14.5539 19.6371C14.4168 19.5356 14.5945 19.6676 14.6098 19.6828C14.7113 19.7692 14.8129 19.8555 14.9043 19.9469C15.0008 20.0383 15.0922 20.1348 15.1836 20.2313C15.2293 20.2821 15.2699 20.3278 15.3156 20.3785C15.3359 20.3989 15.5035 20.6172 15.402 20.4852C15.5594 20.6985 15.7067 20.9219 15.8387 21.1555C15.9047 21.2723 15.9656 21.3891 16.0215 21.511C16.0317 21.5313 16.118 21.7344 16.052 21.577C16.0875 21.6582 16.118 21.7446 16.1484 21.8309C16.2297 22.0645 16.3008 22.3082 16.3516 22.552C16.3668 22.618 16.377 22.6891 16.3922 22.7551C16.3973 22.7754 16.4277 23.0039 16.4074 22.8262C16.4277 22.9887 16.443 23.1512 16.4481 23.3137C16.4582 23.5981 16.443 23.8774 16.4176 24.1617C16.3973 24.3903 16.4481 24.0094 16.4074 24.2328C16.3973 24.2989 16.382 24.3699 16.3719 24.436C16.3414 24.5934 16.3008 24.7457 16.2602 24.9032C16.2297 25.0098 16.1942 25.1215 16.1586 25.2282C16.1383 25.2942 16.1129 25.3551 16.0875 25.416C16.0113 25.6242 16.1535 25.284 16.0621 25.4821C15.9352 25.7461 15.8031 26 15.6457 26.2438C15.5746 26.3555 15.4984 26.4621 15.4172 26.5688C15.5188 26.4317 15.3867 26.6094 15.3715 26.6246C15.3309 26.6754 15.2852 26.7262 15.2395 26.777C15.0465 26.9903 14.8434 27.1934 14.6199 27.3762C14.6047 27.3864 14.432 27.5235 14.5641 27.4219C14.5133 27.4625 14.4574 27.5031 14.4016 27.5387C14.2746 27.6301 14.1426 27.7114 14.0106 27.7926C13.8785 27.8739 13.7363 27.9449 13.5992 28.011C13.5383 28.0414 13.4774 28.0668 13.4164 28.0973C13.5738 28.0262 13.3149 28.1379 13.2844 28.1481C12.9848 28.2598 12.6801 28.341 12.3652 28.402C12.2992 28.4121 12.2281 28.4274 12.1621 28.4375C12.3348 28.4121 12.0504 28.4477 12.0199 28.4528C11.8574 28.468 11.6899 28.4731 11.5274 28.4731C11.1313 28.4731 10.7453 28.8235 10.7656 29.2348C10.7859 29.6461 11.1008 29.9965 11.5274 29.9965H39.1168C39.584 29.9965 40.0613 30.0168 40.5285 29.9711C43.1539 29.7223 45.4188 27.9145 46.1754 25.3754C46.3531 24.7864 46.4344 24.1567 46.4395 23.5422C46.4445 23.1461 46.0891 22.7602 45.6777 22.7805C45.2512 22.7856 44.9059 23.1004 44.9008 23.527Z" fill="#010101"/>
<path d="M34.1402 14.4575C34.1301 15.5341 33.8305 16.5345 33.2313 17.4536C33.4496 17.3266 33.668 17.1997 33.8914 17.0778H23.598C23.8164 17.2048 24.0348 17.3317 24.2582 17.4536C23.791 16.7325 23.4965 16.0165 23.3848 15.1278C23.3848 15.1481 23.3949 15.204 23.3848 15.1126C23.3797 15.0567 23.3746 14.9958 23.3695 14.9399C23.3594 14.8384 23.3543 14.7368 23.3543 14.6302C23.3492 14.427 23.3543 14.229 23.3645 14.0259C23.3695 13.9446 23.3797 13.8634 23.3848 13.7821C23.3848 13.7618 23.4051 13.6145 23.3949 13.711C23.3797 13.8075 23.4051 13.6653 23.4051 13.6399C23.4355 13.4571 23.4711 13.2794 23.5168 13.1016C23.5574 12.9493 23.6031 12.797 23.6539 12.6446C23.6844 12.5583 23.7148 12.477 23.7453 12.3907C23.7555 12.3602 23.7707 12.3298 23.7809 12.2993C23.725 12.4364 23.7859 12.2942 23.7961 12.2638C23.9434 11.954 24.1109 11.6493 24.3039 11.3649C24.3496 11.2989 24.3902 11.238 24.4359 11.177C24.4461 11.1618 24.5324 11.0501 24.4766 11.1212C24.4258 11.1872 24.4918 11.1009 24.4969 11.0958C24.6137 10.9638 24.7254 10.8266 24.8473 10.6997C24.9641 10.5829 25.0809 10.4661 25.2078 10.3595C25.2637 10.3087 25.3246 10.2579 25.3855 10.2122C25.4922 10.1208 25.4109 10.1919 25.3855 10.2071C25.4313 10.1716 25.4719 10.1411 25.5176 10.1106C25.7969 9.90751 26.0914 9.72977 26.4012 9.57743C26.4723 9.54188 26.5434 9.51141 26.6145 9.47587C26.7211 9.42509 26.5078 9.51649 26.6195 9.47587C26.65 9.46571 26.6805 9.45048 26.7109 9.44032C26.8785 9.3743 27.0512 9.31844 27.2238 9.26766C27.3863 9.22196 27.5539 9.18133 27.7215 9.14579C27.8027 9.13055 27.8789 9.11532 27.9602 9.10516C28.1074 9.07977 27.9957 9.10008 27.9652 9.10516C28.0211 9.10008 28.082 9.08993 28.1379 9.08485C28.5035 9.0493 28.8691 9.04423 29.2297 9.07469C29.3109 9.07977 29.3922 9.08993 29.4734 9.10008C29.5648 9.11024 29.4531 9.10009 29.443 9.09501C29.4887 9.10009 29.5344 9.11024 29.5801 9.11532C29.7578 9.14579 29.9406 9.18641 30.1184 9.23212C30.2809 9.27782 30.4434 9.32352 30.6059 9.38446C30.682 9.40985 30.7531 9.44032 30.8242 9.46571C30.8496 9.47587 30.9563 9.52665 30.8293 9.46571C30.8801 9.48602 30.9309 9.51141 30.9816 9.5368C31.2813 9.67899 31.5707 9.84657 31.8449 10.0345C31.916 10.0852 31.9871 10.136 32.0582 10.1919C32.1293 10.2427 32.043 10.1817 32.0328 10.1766C32.0684 10.202 32.1039 10.2325 32.1344 10.2579C32.2715 10.3696 32.3984 10.4915 32.5254 10.6134C32.6574 10.7454 32.7844 10.8825 32.9063 11.0247C32.9367 11.0602 32.9621 11.0907 32.9926 11.1263C33.0688 11.2227 32.891 10.9841 33.018 11.1567C33.0688 11.2278 33.1246 11.2989 33.1703 11.3751C33.3836 11.6899 33.5664 12.02 33.7188 12.3653C33.6578 12.2231 33.7645 12.4923 33.7797 12.5278C33.8152 12.6243 33.8457 12.7208 33.8762 12.8173C33.932 13.0001 33.9828 13.188 34.0234 13.3759C34.0438 13.4673 34.059 13.5536 34.0742 13.645C34.0793 13.6653 34.0996 13.8126 34.0844 13.7161C34.0691 13.6145 34.0945 13.8024 34.0945 13.8227C34.1301 14.036 34.1352 14.2442 34.1402 14.4575C34.1402 14.8536 34.4906 15.2395 34.902 15.2192C35.3133 15.1989 35.6637 14.8841 35.6637 14.4575C35.6535 12.7563 35.0289 11.1263 33.9066 9.85165C32.8301 8.62782 31.3016 7.82548 29.6867 7.60712C28.0211 7.38368 26.2895 7.75438 24.898 8.70399C23.5371 9.63329 22.5164 11.0095 22.0746 12.604C21.5668 14.4372 21.8359 16.5548 22.8922 18.1544C23.075 18.4337 23.3035 18.5911 23.6438 18.6013H33.475C33.6121 18.6013 33.7543 18.6114 33.8914 18.6013C34.4754 18.5657 34.7395 17.9665 34.9629 17.4993C35.1863 17.0321 35.3691 16.5446 35.4859 16.0419C35.6027 15.5239 35.6637 14.9856 35.6688 14.4575C35.6738 14.0614 35.3184 13.6755 34.907 13.6958C34.4855 13.7161 34.1402 14.0309 34.1402 14.4575ZM29.5141 5.55555V3.33133C29.5141 2.93524 29.1637 2.5493 28.7523 2.56962C28.341 2.58993 27.9906 2.90477 27.9906 3.33133V5.55555C27.9906 5.95165 28.341 6.33758 28.7523 6.31727C29.1637 6.29696 29.5141 5.98212 29.5141 5.55555ZM22.8465 7.47508L21.4195 6.04813C21.1301 5.75868 20.6324 5.75868 20.343 6.04813C20.0535 6.33758 20.0535 6.83524 20.343 7.12469L21.7699 8.55165C22.0594 8.8411 22.557 8.8411 22.8465 8.55165C23.141 8.26219 23.141 7.76454 22.8465 7.47508ZM35.7145 8.55165L37.1414 7.12469C37.4309 6.83524 37.4309 6.33758 37.1414 6.04813C36.852 5.75868 36.3543 5.75868 36.0648 6.04813L34.6379 7.47508C34.3484 7.76454 34.3484 8.26219 34.6379 8.55165C34.9273 8.84618 35.4199 8.8411 35.7145 8.55165ZM19.7438 13.6856H17.616C17.2199 13.6856 16.834 14.036 16.8543 14.4474C16.8746 14.8587 17.1895 15.2091 17.616 15.2091H19.7438C20.1398 15.2091 20.5258 14.8587 20.5055 14.4474C20.4852 14.036 20.1703 13.6856 19.7438 13.6856ZM39.8684 13.7009H37.7406C37.3445 13.7009 36.9586 14.0513 36.9789 14.4626C36.9992 14.8739 37.3141 15.2243 37.7406 15.2243H39.8684C40.2645 15.2243 40.6504 14.8739 40.6301 14.4626C40.6098 14.0513 40.2949 13.7009 39.8684 13.7009Z" fill="#010101"/>
</svg>
