<svg width="51" height="52" viewBox="0 0 51 52" fill="none" xmlns="http://www.w3.org/2000/svg">
<path d="M50.3387 31.6466C49.8602 30.8477 47.8961 28.4758 42.7129 31.4945L33.5756 36.8165C33.119 37.0824 32.6546 37.2705 32.17 37.3829C32.3491 37.0948 32.4896 36.769 32.5862 36.4085C33.0535 34.6643 32.0168 32.8433 30.2262 32.2629C30.1914 32.2516 30.1558 32.2427 30.1198 32.2361C27.4936 31.7625 24.9018 30.8253 22.8191 30.0725C22.0958 29.8109 21.4126 29.5639 20.8315 29.3755C18.4919 28.6166 16.3765 29.556 14.616 30.5753L7.81965 34.5103L7.07774 33.1994C6.79458 32.6991 6.33227 32.3385 5.77581 32.1843C5.21935 32.03 4.63739 32.1011 4.1371 32.3842L1.57336 33.8351C0.537926 34.4213 0.172301 35.7404 0.758317 36.7759L8.29547 50.0935C8.57863 50.5938 9.04104 50.9542 9.5975 51.1085C9.78996 51.1618 9.98537 51.1882 10.1796 51.1882C10.5467 51.1882 10.909 51.0938 11.2362 50.9086L13.8 49.4577C14.3003 49.1745 14.6607 48.7121 14.815 48.1558C14.9692 47.5993 14.8983 47.0173 14.6151 46.517L13.9406 45.3253L15.4881 44.4319L27.1904 47.5675C27.8515 47.7447 28.5005 47.8332 29.1355 47.8332C30.4015 47.8332 31.6116 47.4816 32.7506 46.7803L49.3325 36.5699C50.8444 35.6387 51.3242 33.2922 50.3387 31.6466ZM13.2487 47.7216C13.2304 47.7891 13.199 47.8523 13.1562 47.9075C13.1133 47.9627 13.0599 48.0089 12.9991 48.0434L10.4354 49.4945C10.3746 49.5289 10.3075 49.5508 10.2381 49.5591C10.1687 49.5674 10.0984 49.5617 10.0312 49.5426C9.96371 49.5244 9.90053 49.4929 9.8453 49.4501C9.79007 49.4073 9.74389 49.354 9.70943 49.2932L2.17227 35.9755C2.1379 35.9146 2.11594 35.8476 2.10766 35.7782C2.09938 35.7088 2.10494 35.6385 2.12403 35.5713C2.14225 35.5038 2.17368 35.4406 2.2165 35.3854C2.25931 35.3301 2.31267 35.284 2.37347 35.2495L4.93721 33.7986C5.01611 33.7538 5.10528 33.7303 5.19599 33.7304C5.24443 33.7304 5.29329 33.737 5.34153 33.7504C5.40899 33.7687 5.47216 33.8001 5.52739 33.8429C5.58262 33.8857 5.6288 33.9391 5.66328 33.9999L12.1327 45.4307L13.2004 47.3174C13.2348 47.3782 13.2568 47.4453 13.265 47.5146C13.2733 47.584 13.2678 47.6544 13.2487 47.7216ZM48.4801 35.1861L31.8982 45.3965C30.5836 46.2058 29.1411 46.4081 27.6105 45.9978L15.5832 42.7751C15.3751 42.7194 15.1533 42.7486 14.9667 42.8562L13.1399 43.911L8.61996 35.9245L15.4301 31.9815C16.9537 31.0993 18.6016 30.3604 20.3302 30.9211C20.8856 31.1012 21.5256 31.3325 22.2666 31.6005C24.3916 32.3687 27.0324 33.3236 29.7727 33.8246C30.7267 34.1579 31.2601 35.0794 31.0166 35.988C30.6964 37.183 29.7006 37.3318 28.9083 37.2409C27.5624 36.9642 26.2834 36.5992 24.9302 36.2127C24.2884 36.0294 23.6248 35.8399 22.9426 35.6571C22.7345 35.6013 22.5127 35.6305 22.3261 35.7382C22.1394 35.846 22.0033 36.0235 21.9475 36.2316C21.8917 36.4398 21.9209 36.6615 22.0287 36.8482C22.1364 37.0348 22.3139 37.1709 22.522 37.2267C23.1913 37.4061 23.8484 37.5937 24.4839 37.7752C25.8786 38.1735 27.1958 38.5497 28.6144 38.8396C29.6283 39.045 30.7042 39.2089 31.7391 39.0971C32.6782 38.9956 33.5769 38.696 34.3935 38.2206L43.5308 32.8986C46.1601 31.3673 48.1839 31.2113 48.9446 32.4814C49.4688 33.3568 49.2344 34.7217 48.4801 35.1861ZM5.78211 36.5491C5.79949 36.668 5.79328 36.7892 5.76383 36.9058C5.73437 37.0223 5.68226 37.1319 5.61045 37.2283C5.53864 37.3247 5.44855 37.406 5.34532 37.4676C5.24209 37.5291 5.12774 37.5698 5.00881 37.5872C4.88987 37.6045 4.76868 37.5983 4.65214 37.5689C4.53561 37.5394 4.42601 37.4873 4.32962 37.4155C4.23323 37.3437 4.15192 37.2536 4.09034 37.1504C4.02877 37.0471 3.98812 36.9328 3.97074 36.8139C3.93563 36.5737 3.99737 36.3294 4.1424 36.1347C4.28742 35.94 4.50383 35.8109 4.74404 35.7758C4.98424 35.7407 5.22855 35.8024 5.42323 35.9475C5.6179 36.0925 5.74699 36.3089 5.78211 36.5491ZM20.8361 28.5174H41.3219C41.5374 28.5174 41.744 28.4318 41.8964 28.2795C42.0488 28.1271 42.1344 27.9204 42.1344 27.7049V18.4003C42.1344 16.0452 40.3276 14.2463 37.1773 13.4649C35.8197 13.1281 34.4637 12.9031 33.1132 12.7884C35.0974 11.7666 36.5007 9.29855 36.5007 6.42159C36.5009 2.96177 34.4233 0.8125 31.0791 0.8125C27.7348 0.8125 25.6573 2.96177 25.6573 6.42159C25.6573 9.29185 27.0541 11.7555 29.031 12.7815C27.6618 12.8948 26.3046 13.124 24.9742 13.4666C21.7819 14.2872 20.0237 16.0394 20.0237 18.4003V27.7049C20.0237 27.8116 20.0447 27.9173 20.0855 28.0159C20.1263 28.1144 20.1862 28.204 20.2616 28.2794C20.3371 28.3549 20.4266 28.4147 20.5252 28.4556C20.6238 28.4964 20.7294 28.5174 20.8361 28.5174ZM27.2822 6.42159C27.2822 2.95506 29.6611 2.4375 31.0791 2.4375C32.4971 2.4375 34.8759 2.95506 34.8759 6.42159C34.8759 9.31399 33.1726 11.6671 31.0791 11.6671C28.9856 11.6671 27.2822 9.31399 27.2822 6.42159ZM21.6486 18.4002C21.6486 16.4156 23.677 15.4777 25.3787 15.0403C29.093 14.085 32.931 14.0856 36.7862 15.042C38.1767 15.3869 40.5095 16.2819 40.5095 18.4002V26.8923H37.48V20.5391C37.48 20.3236 37.3944 20.1169 37.242 19.9646C37.0896 19.8122 36.883 19.7266 36.6675 19.7266C36.452 19.7266 36.2453 19.8122 36.0929 19.9646C35.9406 20.1169 35.855 20.3236 35.855 20.5391V26.8923H26.3031V20.5391C26.3031 20.3236 26.2175 20.1169 26.0651 19.9646C25.9128 19.8122 25.7061 19.7266 25.4906 19.7266C25.2751 19.7266 25.0685 19.8122 24.9161 19.9646C24.7637 20.1169 24.6781 20.3236 24.6781 20.5391V26.8923H21.6487L21.6486 18.4002Z" fill="#010101"/>
</svg>
