<svg width="52" height="52" viewBox="0 0 52 52" fill="none" xmlns="http://www.w3.org/2000/svg">
<path d="M3.25 26.0001C3.25 13.4559 13.4558 3.25008 26 3.25008C31.5526 3.25008 36.7965 5.22852 40.9403 8.84495L38.0266 9.25689C37.8168 9.29096 37.6287 9.40587 37.5027 9.57698C37.3766 9.7481 37.3226 9.9618 37.3523 10.1723C37.3819 10.3827 37.4929 10.5732 37.6613 10.7028C37.8298 10.8324 38.0423 10.8909 38.2533 10.8656L42.8521 10.2148C42.8878 10.21 42.9171 10.1896 42.9512 10.1799C43.0578 10.1528 43.157 10.102 43.2412 10.0312C43.2607 10.0158 43.2843 10.0093 43.3022 9.99221C43.3152 9.98002 43.3193 9.96296 43.3314 9.94996C43.374 9.90174 43.4106 9.84854 43.4403 9.79152C43.4606 9.75333 43.4818 9.71758 43.4956 9.67777C43.5134 9.62373 43.5251 9.56786 43.5305 9.51121C43.537 9.46083 43.5419 9.41371 43.5394 9.36333C43.5378 9.34058 43.5467 9.31946 43.5435 9.29671L42.8927 4.69796C42.8625 4.48451 42.7488 4.2918 42.5765 4.16221C42.4043 4.03261 42.1876 3.97676 41.9742 4.00692C41.7607 4.03709 41.568 4.15081 41.4384 4.32307C41.3088 4.49533 41.253 4.71201 41.2831 4.92545L41.6171 7.28252C37.2434 3.62139 31.7769 1.62427 26 1.62427C12.5596 1.62508 1.625 12.5597 1.625 26.0001C1.625 29.6905 2.42531 33.2289 4.00481 36.5163C4.05101 36.6125 4.11571 36.6986 4.1952 36.7698C4.27469 36.841 4.36743 36.8958 4.46812 36.9312C4.5688 36.9665 4.67546 36.9817 4.78201 36.9758C4.88856 36.9699 4.9929 36.9431 5.08909 36.8969C5.18528 36.8507 5.27143 36.786 5.34262 36.7065C5.4138 36.627 5.46864 36.5343 5.50398 36.4336C5.53933 36.3329 5.5545 36.2263 5.54863 36.1197C5.54275 36.0132 5.51595 35.9088 5.46975 35.8126C3.9975 32.7471 3.25 29.4459 3.25 26.0001ZM46.9113 15.1036C46.7171 15.1969 46.5678 15.3634 46.4963 15.5667C46.4249 15.7699 46.4371 15.9933 46.5303 16.1875C48.0025 19.2531 48.7492 22.5543 48.7492 26.0001C48.7492 38.5443 38.5434 48.7501 25.9992 48.7501C20.4466 48.7501 15.2027 46.7716 11.0589 43.1552L13.9726 42.7433C14.1824 42.7092 14.3704 42.5943 14.4965 42.4232C14.6226 42.2521 14.6766 42.0384 14.6469 41.8279C14.6172 41.6174 14.5063 41.427 14.3379 41.2974C14.1694 41.1677 13.9569 41.1093 13.7459 41.1345L9.14713 41.7853C9.11056 41.7902 9.0805 41.8113 9.04556 41.8211C9.00304 41.8324 8.96147 41.8471 8.92125 41.865C8.86265 41.8929 8.80779 41.9281 8.75794 41.9698C8.73844 41.9852 8.71569 41.9909 8.697 42.0088C8.684 42.021 8.67994 42.038 8.66775 42.051C8.62492 42.099 8.58833 42.1523 8.55888 42.2095C8.53856 42.2476 8.51744 42.2834 8.50362 42.3232C8.48577 42.3772 8.47405 42.4331 8.46869 42.4898C8.46219 42.5401 8.45731 42.5873 8.45975 42.6376C8.46137 42.6604 8.45244 42.6815 8.45569 42.7043L9.1065 47.303C9.13667 47.5165 9.25039 47.7092 9.42265 47.8388C9.59491 47.9684 9.81159 48.0242 10.025 47.994C10.2385 47.9639 10.4312 47.8502 10.5608 47.6779C10.6904 47.5056 10.7462 47.289 10.7161 47.0755L10.3821 44.7185C14.7558 48.3796 20.2223 50.3767 25.9992 50.3767C39.4396 50.3767 50.3742 39.4421 50.3742 26.0017C50.3742 22.3113 49.5739 18.7729 47.9944 15.4855C47.9483 15.3893 47.8837 15.303 47.8042 15.2318C47.7248 15.1606 47.6321 15.1057 47.5314 15.0704C47.4307 15.0351 47.324 15.02 47.2175 15.0259C47.1109 15.0319 47.0066 15.0589 46.9105 15.1053L46.9113 15.1036Z" fill="#010101"/>
<path d="M39.5623 28.9536C39.7567 28.9267 39.9348 28.8304 40.0637 28.6824C40.1926 28.5343 40.2635 28.3447 40.2635 28.1484V23.8511C40.2635 23.6548 40.1926 23.4652 40.0637 23.3172C39.9348 23.1692 39.7567 23.0728 39.5623 23.0459L36.764 22.6584C36.5593 21.9978 36.2952 21.3584 35.9743 20.7498L37.6789 18.4975C37.7973 18.341 37.8551 18.1469 37.8415 17.9511C37.8279 17.7553 37.7439 17.571 37.605 17.4324L34.567 14.3936C34.4281 14.2551 34.2438 14.1715 34.0481 14.158C33.8524 14.1446 33.6584 14.2023 33.5018 14.3205L31.2496 16.0251C30.6402 15.7042 30.0016 15.4401 29.341 15.2354L28.9527 12.4363C28.9258 12.242 28.8295 12.064 28.6817 11.9351C28.5339 11.8063 28.3444 11.7352 28.1483 11.7351H23.851C23.6548 11.7352 23.4654 11.8063 23.3175 11.9351C23.1697 12.064 23.0735 12.242 23.0466 12.4363L22.6582 15.2354C21.9985 15.4401 21.359 15.7042 20.7497 16.0251L18.4974 14.3205C18.3408 14.2023 18.1469 14.1446 17.9511 14.158C17.7554 14.1715 17.5712 14.2551 17.4322 14.3936L14.3943 17.4324C14.2554 17.571 14.1714 17.7553 14.1578 17.9511C14.1442 18.1469 14.2019 18.341 14.3203 18.4975L16.025 20.7498C15.704 21.3592 15.44 21.9978 15.2352 22.6584L12.437 23.0459C12.2426 23.0728 12.0644 23.1692 11.9355 23.3172C11.8067 23.4652 11.7357 23.6548 11.7358 23.8511V28.1484C11.7357 28.3447 11.8067 28.5343 11.9355 28.6824C12.0644 28.8304 12.2426 28.9267 12.437 28.9536L15.2352 29.3412C15.44 30.0017 15.704 30.6412 16.025 31.2497L14.3203 33.502C14.2019 33.6585 14.1442 33.8526 14.1578 34.0484C14.1714 34.2442 14.2554 34.4285 14.3943 34.5672L17.4322 37.6059C17.5709 37.7449 17.7552 37.8288 17.9511 37.8423C18.1469 37.8557 18.341 37.7977 18.4974 37.679L20.7497 35.9744C21.359 36.2962 21.9977 36.5602 22.6582 36.765L23.0466 39.5632C23.0735 39.7575 23.1697 39.9355 23.3175 40.0644C23.4654 40.1933 23.6548 40.2643 23.851 40.2644H28.1483C28.3444 40.2643 28.5339 40.1933 28.6817 40.0644C28.8295 39.9355 28.9258 39.7575 28.9527 39.5632L29.341 36.765C30.0002 36.5609 30.6391 36.2962 31.2496 35.9744L33.5018 37.679C33.6582 37.7977 33.8523 37.8557 34.0481 37.8423C34.244 37.8288 34.4283 37.7449 34.567 37.6059L37.605 34.5672C37.7439 34.4285 37.8279 34.2442 37.8415 34.0484C37.8551 33.8526 37.7973 33.6585 37.6789 33.502L35.9743 31.2497C36.2952 30.6404 36.5593 30.0017 36.764 29.3412L39.5623 28.9536ZM35.3397 28.4068C35.1153 29.2837 34.7676 30.1244 34.307 30.9036C34.1388 31.188 34.1592 31.5447 34.3574 31.8079L35.9548 33.9188L33.9178 35.9565L31.8062 34.3592C31.6776 34.262 31.5231 34.2053 31.3622 34.1961C31.2013 34.187 31.0414 34.226 30.9027 34.308C30.1251 34.7679 29.285 35.1156 28.4058 35.3415C28.2497 35.3817 28.1092 35.4675 28.0019 35.5879C27.8947 35.7082 27.8258 35.8578 27.8038 36.0175L27.4406 38.641H24.5587L24.1955 36.0175C24.1732 35.8579 24.1041 35.7085 23.9969 35.5882C23.8898 35.4679 23.7493 35.382 23.5934 35.3415C22.7165 35.1165 21.8759 34.7686 21.0966 34.308C20.958 34.2257 20.798 34.1867 20.637 34.1958C20.4761 34.2049 20.3215 34.2618 20.1931 34.3592L18.0814 35.9565L16.0445 33.9188L17.6418 31.8079C17.739 31.6792 17.7957 31.5245 17.8047 31.3634C17.8137 31.2024 17.7745 31.0423 17.6922 30.9036C17.2322 30.1241 16.8845 29.2835 16.6595 28.4068C16.6191 28.2507 16.5333 28.1101 16.413 28.0028C16.2927 27.8955 16.1432 27.8263 15.9835 27.8039L13.36 27.4407V24.5588L15.9835 24.1956C16.3102 24.1501 16.5767 23.912 16.6595 23.5927C16.8838 22.716 17.2315 21.8756 17.6922 21.0967C17.7743 20.958 17.8134 20.7979 17.8044 20.6369C17.7954 20.4759 17.7388 20.3212 17.6418 20.1924L16.0445 18.0815L18.0814 16.0438L20.1931 17.6412C20.3215 17.7386 20.4761 17.7956 20.637 17.8047C20.798 17.8138 20.958 17.7747 21.0966 17.6924C21.8759 17.2318 22.7165 16.8839 23.5934 16.6589C23.7495 16.6189 23.8901 16.5333 23.9973 16.413C24.1046 16.2928 24.1735 16.1433 24.1955 15.9837L24.5587 13.3601H27.4406L27.8038 15.9837C27.8259 16.1432 27.895 16.2926 28.0022 16.4128C28.1094 16.533 28.2499 16.6187 28.4058 16.6589C29.2858 16.8855 30.1259 17.2333 30.9027 17.6924C31.1846 17.8597 31.5421 17.8394 31.8062 17.6412L33.9178 16.0438L35.9548 18.0815L34.3574 20.1924C34.2602 20.3211 34.2035 20.4759 34.1945 20.6369C34.1856 20.798 34.2247 20.958 34.307 21.0967C34.7653 21.8719 35.113 22.712 35.3397 23.5927C35.4226 23.912 35.6891 24.1501 36.0157 24.1956L38.6393 24.5588V27.4407L36.0157 27.8039C35.6891 27.8494 35.4226 28.0875 35.3397 28.4068Z" fill="#010101"/>
<path d="M26 19.5903C22.4656 19.5903 19.5902 22.4658 19.5902 26.0001C19.5902 29.5345 22.4656 32.41 26 32.41C29.5344 32.41 32.4098 29.5345 32.4098 26.0001C32.4098 22.4658 29.5344 19.5903 26 19.5903ZM26 30.7841C23.3618 30.7841 21.2152 28.6375 21.2152 25.9993C21.2152 23.3611 23.3618 21.2145 26 21.2145C28.6382 21.2145 30.7848 23.3611 30.7848 25.9993C30.7848 28.6375 28.6382 30.7841 26 30.7841Z" fill="#010101"/>
</svg>
